# xmcd CD database file
#
# Track frame offsets:
#	150
#	19222
#	32317
#	51117
#	69145
#	88230
#	111315
#	130365
#	146047
#	167085
#	186890
#	206032
#	225377
#	241505
#	260390
#	279177
#
# Disc length: 3907 seconds
#
# Revision: 7
# Processed by: cddbd v1.5.2PL0 Copyright (c) Steve Scherf et al.
# Submitted via: CDex 1.70beta2
#
DISCID=d60f4110
DTITLE=郭小霖 - 一些新一些舊[新曲精選] 
DYEAR=2009
DGENRE=Pop
TTITLE0=一些事一些情
TTITLE1=想你
TTITLE2=分手真相
TTITLE3=愛情蝙蝠俠
TTITLE4=夜裡細雨
TTITLE5=從不知
TTITLE6=全靠你
TTITLE7=酒意
TTITLE8=情人身邊
TTITLE9=夢中見
TTITLE10=不准喧嘩
TTITLE11=一千句 I'm sorry
TTITLE12=迷惘
TTITLE13=小霖秘笈
TTITLE14=但願
TTITLE15=他也是人
EXTD=YEAR: 2009
EXTT0=
EXTT1=
EXTT2=
EXTT3=
EXTT4=
EXTT5=
EXTT6=
EXTT7=
EXTT8=
EXTT9=
EXTT10=
EXTT11=
EXTT12=
EXTT13=
EXTT14=
EXTT15=
PLAYORDER=
